<svg width="223" height="190" viewBox="0 0 223 190" fill="none" xmlns="http://www.w3.org/2000/svg">
<path d="M0 133.054V135.988L1.48061 137.808" fill="#ADCEE1"/>
<path d="M58.9662 97.3225L1.67745 132.83C1.15748 133.158 0.731122 133.615 0.439743 134.157C0.148364 134.698 0.00185339 135.306 0.0144169 135.92C0.0269805 136.535 0.198196 137.136 0.511453 137.665C0.82471 138.194 1.26938 138.633 1.80233 138.94L88.7477 188.121C89.963 188.809 91.3377 189.165 92.7341 189.154C94.1305 189.143 95.4995 188.766 96.7038 188.059L153.743 154.531C157.89 151.124 157.578 144.72 153.743 144.443L67.2968 97.1708C66.0254 96.4371 64.5781 96.0635 63.1104 96.0902C61.6427 96.1169 60.21 96.5429 58.9662 97.3225Z" fill="#88D3D8"/>
<path d="M58.9658 94.8784L1.66818 130.386C1.1482 130.714 0.721851 131.171 0.430472 131.713C0.139094 132.254 -0.00742399 132.862 0.00513957 133.476C0.0177031 134.091 0.188918 134.692 0.502176 135.221C0.815433 135.75 1.2601 136.189 1.79305 136.496L88.7385 185.677C89.9537 186.365 91.3284 186.721 92.7248 186.71C94.1212 186.699 95.4902 186.321 96.6945 185.615L153.733 152.087C154.391 151.69 154.934 151.13 155.312 150.461C155.689 149.792 155.888 149.037 155.888 148.269C155.888 147.501 155.689 146.747 155.312 146.078C154.934 145.409 154.391 144.849 153.733 144.452L67.2608 94.7357C65.9943 94.0075 64.5542 93.6362 63.0936 93.6614C61.6329 93.6865 60.2064 94.1071 58.9658 94.8784Z" fill="white"/>
<path d="M61.3115 90.026C61.3115 90.026 85.1082 13.2218 84.9566 13.2218C84.805 13.2218 85.6969 9.80571 89.9514 11.7412L181.267 65.4889C181.267 65.4889 185.727 67.2728 184.835 71.4024C183.943 75.5321 161.538 146.557 161.538 146.557C161.07 147.232 160.399 147.74 159.623 148.008C158.847 148.276 158.005 148.289 157.221 148.046C154.438 147.154 63.4165 94.3072 63.4165 94.3072C62.5887 93.9928 61.911 93.376 61.5204 92.5814C61.1297 91.7867 61.055 90.8735 61.3115 90.026Z" fill="#00BCD4"/>
<path d="M86.4726 18.8057L179.983 73.3205L160.592 138.44L65.8779 85.5399L86.4726 18.8057Z" fill="#172D51"/>
<path d="M55.4601 103.013L34.5087 116.062C34.1355 116.292 33.8288 116.616 33.6187 117.001C33.4086 117.386 33.3024 117.819 33.3105 118.257C33.3186 118.695 33.4407 119.124 33.6649 119.501C33.8891 119.878 34.2076 120.19 34.5889 120.406L109.805 163.272C110.93 163.921 112.205 164.263 113.503 164.263C114.8 164.263 116.076 163.921 117.2 163.272C122.034 160.454 130.356 155.378 135.448 152.257C135.902 151.978 136.275 151.587 136.532 151.121C136.788 150.655 136.92 150.131 136.914 149.599C136.908 149.067 136.764 148.546 136.496 148.086C136.228 147.627 135.846 147.244 135.386 146.977C120.161 138.093 70.5605 109.248 59.679 102.942C59.0355 102.57 58.3029 102.38 57.5596 102.392C56.8164 102.405 56.0906 102.619 55.4601 103.013Z" fill="#00BCD4"/>
<path d="M56.5843 138.441L82.8517 153.211C83.252 153.441 83.5845 153.772 83.8158 154.172C84.0471 154.571 84.1689 155.024 84.1689 155.486C84.1689 155.947 84.0471 156.401 83.8158 156.8C83.5845 157.199 83.252 157.531 82.8517 157.76L67.4035 166.804C66.8733 167.11 66.2719 167.272 65.6597 167.272C65.0476 167.272 64.4462 167.11 63.916 166.804L37.0778 151.472C36.7423 151.28 36.4635 151.003 36.2696 150.668C36.0757 150.334 35.9736 149.954 35.9736 149.568C35.9736 149.181 36.0757 148.802 36.2696 148.467C36.4635 148.133 36.7423 147.856 37.0778 147.664L53.1326 138.432C53.6592 138.134 54.2544 137.978 54.8596 137.98C55.4648 137.981 56.0592 138.14 56.5843 138.441Z" fill="#00BCD4"/>
<path opacity="0.1" d="M55.4601 103.013L34.5087 116.062C34.1355 116.292 33.8288 116.616 33.6187 117.001C33.4086 117.386 33.3024 117.819 33.3105 118.257C33.3186 118.695 33.4407 119.124 33.6649 119.501C33.8891 119.878 34.2076 120.19 34.5889 120.406L109.805 163.272C110.93 163.921 112.205 164.263 113.503 164.263C114.8 164.263 116.076 163.921 117.2 163.272C122.034 160.454 130.356 155.378 135.448 152.257C135.902 151.978 136.275 151.587 136.532 151.121C136.788 150.655 136.92 150.131 136.914 149.599C136.908 149.067 136.764 148.546 136.496 148.086C136.228 147.627 135.846 147.244 135.386 146.977C120.161 138.093 70.5605 109.248 59.679 102.942C59.0355 102.57 58.3029 102.38 57.5596 102.392C56.8164 102.405 56.0906 102.619 55.4601 103.013Z" fill="#053855"/>
<path opacity="0.1" d="M56.5843 138.441L82.8517 153.211C83.252 153.441 83.5845 153.772 83.8158 154.172C84.0471 154.571 84.1689 155.024 84.1689 155.486C84.1689 155.947 84.0471 156.401 83.8158 156.8C83.5845 157.199 83.252 157.531 82.8517 157.76L67.4035 166.804C66.8733 167.11 66.2719 167.272 65.6597 167.272C65.0476 167.272 64.4462 167.11 63.916 166.804L37.0778 151.472C36.7423 151.28 36.4635 151.003 36.2696 150.668C36.0757 150.334 35.9736 149.954 35.9736 149.568C35.9736 149.181 36.0757 148.802 36.2696 148.467C36.4635 148.133 36.7423 147.856 37.0778 147.664L53.1326 138.432C53.6592 138.134 54.2544 137.978 54.8596 137.98C55.4648 137.981 56.0592 138.14 56.5843 138.441Z" fill="#053855"/>
<path d="M37.0334 141.348C35.1638 136.119 34.1518 130.622 34.0365 125.07C33.7422 117.997 36.3377 107.107 46.693 107.802C61.2404 108.783 66.4047 124.624 74.2002 128.959C81.9956 133.294 99.6113 126.123 100.771 132.741C101.93 139.359 98.7907 147.172 94.2151 151.98C83.2087 163.575 61.3742 162.683 48.4055 155.119C43.1222 151.998 39.0986 147.126 37.0334 141.348Z" fill="#FA6D90"/>
<path d="M88.3995 153.202C64.6384 156.404 35.7755 140.974 34.616 117.418C34.1044 119.854 33.8829 122.342 33.956 124.83C34.0713 130.382 35.0833 135.879 36.9529 141.108C39.0186 146.891 43.0456 151.767 48.3339 154.888C61.1777 162.353 82.7179 163.308 93.8224 152.061C92.0453 152.574 90.2327 152.955 88.3995 153.202Z" fill="#D64770"/>
<path d="M98.0142 101.3C98.0159 100.899 97.9163 100.504 97.7245 100.151C97.5327 99.7989 97.255 99.5007 96.9171 99.2843C96.8841 98.9505 96.7636 98.6312 96.5679 98.3588C96.3721 98.0863 96.1081 97.8702 95.8022 97.7323C95.7594 97.7127 95.7145 97.6977 95.6684 97.6877C96.1978 96.6731 96.6279 95.6098 96.9528 94.5125C96.9411 94.3279 96.8693 94.1522 96.7484 94.0122C96.6275 93.8722 96.4641 93.7756 96.2831 93.7372C96.1022 93.6988 95.9136 93.7207 95.7463 93.7994C95.5789 93.8782 95.4419 94.0096 95.3563 94.1735C94.8592 95.5534 94.2195 96.8777 93.4475 98.1248C93.3831 98.0908 93.314 98.0667 93.2424 98.0534C92.2702 97.9196 91.4585 97.6788 91.075 98.8116C90.6915 99.9443 90.4952 100.988 90.1831 102.076C90.158 102.167 90.1526 102.261 90.1671 102.354C90.1817 102.447 90.2158 102.535 90.2673 102.614C90.3188 102.692 90.3865 102.759 90.4658 102.809C90.5451 102.86 90.6342 102.892 90.7271 102.906C90.7923 103.094 90.9284 103.25 91.1066 103.34C91.2848 103.43 91.491 103.447 91.6815 103.387C91.7246 103.537 91.7974 103.676 91.8956 103.797L91.842 103.86C91.7576 103.973 91.7061 104.106 91.6935 104.247C91.6808 104.387 91.7075 104.528 91.7705 104.654C91.8334 104.78 91.9302 104.886 92.05 104.96C92.1697 105.034 92.3078 105.073 92.4486 105.073C91.851 105.483 92.2077 106.589 92.9837 106.313C94.4911 105.769 96.6139 105.421 97.7823 104.217C98.1936 103.857 98.448 103.35 98.4913 102.806C98.5347 102.261 98.3634 101.72 98.0142 101.3Z" fill="#FFB5A9"/>
<path d="M93.4563 103.583C93.5139 103.473 93.5479 103.352 93.556 103.228C93.5641 103.104 93.5461 102.98 93.5033 102.863C93.4605 102.746 93.3937 102.64 93.3073 102.55C93.2208 102.461 93.1167 102.39 93.0014 102.344L93.1441 102.112C93.2331 101.955 93.2722 101.774 93.2564 101.594C93.2405 101.414 93.1704 101.244 93.0554 101.104C92.9404 100.965 92.7858 100.864 92.6121 100.815C92.4384 100.765 92.2539 100.77 92.0827 100.827C91.9952 100.717 91.8826 100.628 91.7543 100.569C91.6259 100.51 91.4854 100.483 91.3443 100.489C91.2032 100.495 91.0656 100.535 90.9428 100.604C90.82 100.674 90.7154 100.772 90.6378 100.89C89.6872 102.568 88.6202 104.177 87.4447 105.706C87.3338 105.845 87.2649 106.013 87.2459 106.19C87.2269 106.367 87.2588 106.546 87.3377 106.705L87.1058 107.053C87.034 107.155 86.987 107.271 86.9687 107.394C86.9503 107.517 86.9611 107.643 87.0001 107.761C87.0392 107.879 87.1054 107.986 87.1935 108.074C87.2815 108.162 87.389 108.227 87.5071 108.266C87.6467 108.463 87.8526 108.602 88.0869 108.659C87.8371 109.256 88.4347 109.773 89.0234 109.756C89.0935 109.859 89.1859 109.945 89.2938 110.007C89.4017 110.069 89.5222 110.107 89.6464 110.116C89.7707 110.125 89.8955 110.107 90.0115 110.061C90.1276 110.016 90.2319 109.945 90.3167 109.854C91.7618 108.371 92.928 106.639 93.7596 104.743C93.8508 104.544 93.8704 104.32 93.8151 104.109C93.7599 103.898 93.6331 103.712 93.4563 103.583Z" fill="#FFB5A9"/>
<path d="M86.3392 132.883C90.014 129.494 94.108 124.624 91.5214 120.753C87.2401 114.367 75.7253 121.815 73.8344 122.216C65.5305 124 48.3787 143.622 63.8626 142.918C70.9015 142.599 77.656 140.047 83.1461 135.631C83.9935 134.935 85.1441 133.989 86.3392 132.883Z" fill="#3E2928"/>
<path d="M86.2233 132.741C86.3301 132.396 86.5624 132.103 86.8744 131.92C88.3378 131.095 89.9349 130.534 91.5928 130.261C91.8458 130.201 92.1102 130.207 92.3603 130.279C92.6104 130.35 92.8376 130.486 93.0198 130.672C93.671 124.526 91.5036 120.727 91.5036 120.727L85.7417 133.214C85.9112 133.062 86.0539 132.901 86.2233 132.741Z" fill="#3E2928"/>
<path d="M88.9076 103.13C88.7079 103.066 88.5229 102.963 88.3635 102.826L79.6583 110.443C77.7689 107.449 76.6702 104.024 76.4651 100.489C76.1441 94.6473 64.9414 93.6572 64.9414 93.6572L69.74 113.529C69.74 113.529 72.942 121.557 78.365 122.217C82.6016 122.752 91.3604 113.931 94.9192 108.9C93.4654 106.421 91.7439 104.057 88.9076 103.13Z" fill="#00A99D"/>
<path d="M59.6706 86.9395C55.685 90.389 52.6741 94.8239 50.9386 99.8011C47.8615 108.31 55.5588 122.224 55.5588 122.224L67.5464 112.752" fill="#006D62"/>
<path d="M50.2424 133.338C50.1588 135.028 50.5778 136.704 51.4465 138.155C52.5578 139.913 54.2393 141.235 56.2094 141.901C58.6641 142.733 61.257 143.082 63.8443 142.927C69.1959 142.579 73.8072 140.099 77.7049 136.683C76.9646 127.273 74.3067 120.709 72.0412 117.498L57.5384 110.496C57.6276 110.496 54.711 116.329 54.5772 116.641C53.0828 120.128 51.9298 123.752 51.1343 127.461C50.6511 129.387 50.3524 131.355 50.2424 133.338Z" fill="#3E2928"/>
<path d="M71.783 101.203L56.4418 100.498L52.6064 120.763C57.1821 123.92 71.0873 122.707 73.8255 122.225C72.9782 116.098 72.4341 107.348 71.783 101.203Z" fill="#00A99D"/>
<path d="M71.9342 92.4085C73.1259 90.7734 73.9769 88.9155 74.4366 86.9451C74.8962 84.9747 74.9552 82.932 74.61 80.9383C74.0303 76.889 71.7915 73.5264 67.4746 72.795C60.7851 71.6712 55.9241 77.3171 56.0311 83.632C56.0846 87.1551 56.4681 89.5365 53.8726 91.0082C51.2771 92.4799 49.413 96.3598 51.8747 99.4637C54.3364 102.568 52.1244 101.453 50.4744 104.218C48.8243 106.983 49.2524 110.461 52.6418 111.71C56.0311 112.959 71.7737 110.613 73.2186 109.141C73.7329 108.554 73.9984 107.789 73.9589 107.009C73.5893 105.047 72.5215 103.286 70.9531 102.05C69.6774 100.976 68.6258 99.6603 67.8581 98.1793C66.6005 95.5838 70.4536 94.3084 71.9342 92.4085Z" fill="#F7931E"/>
<path d="M205.42 170.292L210.032 168.009L206.642 166.082L205.42 170.292Z" fill="#C46200"/>
<path d="M181.624 110.46L187.216 107.642L186.556 111.637L183.078 112.672" fill="#C46200"/>
<path d="M212.235 165.394L222.823 129.842C223.097 128.918 223.052 127.928 222.694 127.033C222.337 126.138 221.687 125.39 220.851 124.909L191.088 107.829C190.515 107.508 189.876 107.322 189.22 107.287C188.565 107.252 187.91 107.369 187.306 107.627C186.703 107.886 186.167 108.28 185.74 108.779C185.313 109.278 185.006 109.868 184.844 110.505L175.399 147.154C175.165 148.069 175.24 149.036 175.612 149.904C175.985 150.772 176.634 151.492 177.459 151.953L206.081 167.936C206.641 168.242 207.263 168.418 207.901 168.452C208.538 168.487 209.175 168.378 209.765 168.134C210.355 167.891 210.883 167.518 211.311 167.044C211.738 166.57 212.054 166.006 212.235 165.394Z" fill="#C46200"/>
<path d="M207.258 167.882L217.845 132.33C218.12 131.406 218.075 130.416 217.717 129.521C217.359 128.626 216.71 127.878 215.874 127.398L186.11 110.317C185.537 109.996 184.899 109.811 184.243 109.776C183.587 109.741 182.932 109.857 182.329 110.116C181.725 110.374 181.189 110.768 180.762 111.267C180.335 111.766 180.029 112.357 179.867 112.993L170.421 149.642C170.187 150.557 170.262 151.524 170.635 152.392C171.008 153.26 171.657 153.98 172.481 154.441L201.103 170.424C201.664 170.73 202.286 170.906 202.923 170.941C203.56 170.975 204.198 170.866 204.788 170.623C205.378 170.379 205.906 170.006 206.333 169.532C206.76 169.058 207.076 168.494 207.258 167.882Z" fill="#F7931E"/>
<path d="M191.141 133.401L190.079 136.568L183.087 136.951L188.117 142.437L187.056 145.603L178.788 136.389L179.519 134.186L191.141 133.401Z" fill="white"/>
<path d="M201.237 137.674L209.497 146.896L208.765 149.091L197.152 149.884L198.214 146.709L205.198 146.326L200.176 140.849L201.237 137.674Z" fill="white"/>
<path d="M198.687 134.088L200.827 134.989L190.151 149.429L188.019 148.519L198.687 134.088Z" fill="white"/>
<path d="M114.97 46.9096V49.3088L94.9194 37.6513V35.3145L114.97 46.9096Z" fill="#F7931E"/>
<path d="M172.687 80.2781L116.941 48.0615V50.4697L172.241 82.5792C172.393 81.8211 172.535 81.0094 172.687 80.2781Z" fill="#00A99D"/>
<path d="M171.349 87.3246L164.597 83.418V85.9689L170.93 89.6526C171.096 88.8796 171.236 88.1036 171.349 87.3246Z" fill="#8CC63F"/>
<path d="M162.644 82.2671V84.8181L130.998 66.4264V63.9736L162.644 82.2671Z" fill="#F7931E"/>
<path d="M129 62.8222V65.2661L108.298 53.234V50.8525L129 62.8222Z" fill="#F15A24"/>
<path d="M106.309 49.7026V52.0751L94.9194 45.457V43.1201L106.309 49.7026Z" fill="#8CC63F"/>
<path d="M170.056 94.2894L116.326 63.2324V65.6406L169.566 96.5728C169.726 95.8147 169.896 95.0565 170.056 94.2894Z" fill="#00A99D"/>
<path d="M108.379 67.4963V69.8956L88.3281 58.247V55.9102L108.379 67.4963Z" fill="#F7931E"/>
<path d="M166.104 100.872L110.376 68.6553V71.0635L165.676 103.173C165.81 102.415 165.953 101.639 166.104 100.872Z" fill="#00A99D"/>
<path d="M164.802 107.918L158.05 104.012V106.563L164.383 110.246C164.526 109.473 164.665 108.697 164.802 107.918Z" fill="#8CC63F"/>
<path d="M156.052 102.861V105.403L124.407 87.0113V84.5674L156.052 102.861Z" fill="#F7931E"/>
<path d="M122.418 83.418V85.8529L101.716 73.8297V71.4482L122.418 83.418Z" fill="#F15A24"/>
<path d="M99.7181 70.2973V72.6698L88.3281 66.0517V63.7148L99.7181 70.2973Z" fill="#8CC63F"/>
<path d="M163.465 114.902L109.735 83.8447V86.2529L162.965 117.185C163.144 116.409 163.322 115.651 163.465 114.902Z" fill="#00A99D"/>
<path d="M79.9707 52.387L83.7971 50.4961L80.9875 48.8906L79.9707 52.387Z" fill="#066D0A"/>
<path d="M60.1875 2.65339L64.8345 0.307617L64.2904 3.6256L61.3916 4.49077" fill="#066D0A"/>
<path d="M85.6343 48.3203L94.4377 18.7617C94.6649 17.9929 94.6265 17.17 94.3288 16.4256C94.031 15.6813 93.4913 15.0589 92.7965 14.6588L68.0544 0.468228C67.579 0.197254 67.0477 0.0392455 66.5015 0.00642463C65.9554 -0.0263963 65.4089 0.0668485 64.9046 0.278949C64.4002 0.491049 63.9513 0.81632 63.5927 1.22961C63.2342 1.64289 62.9754 2.13312 62.8366 2.66238L54.9876 33.1307C54.7929 33.8924 54.8553 34.697 55.1649 35.4196C55.4746 36.1422 56.0143 36.7423 56.7001 37.1266L80.4968 50.4163C80.9627 50.673 81.4801 50.8222 82.0112 50.8531C82.5422 50.884 83.0734 50.7957 83.5659 50.5947C84.0585 50.3938 84.4998 50.0853 84.8577 49.6917C85.2156 49.2982 85.4809 48.8296 85.6343 48.3203Z" fill="#066D0A"/>
<path d="M81.4961 50.3889L90.2995 20.8303C90.5267 20.0615 90.4883 19.2386 90.1906 18.4942C89.8929 17.7499 89.3531 17.1275 88.6583 16.7275L63.9162 2.51901C63.4408 2.24803 62.9095 2.09003 62.3633 2.05721C61.8172 2.02438 61.2707 2.11763 60.7664 2.32973C60.262 2.54183 59.8131 2.8671 59.4546 3.28039C59.096 3.69368 58.8372 4.1839 58.6984 4.71316L50.8494 35.1815C50.6547 35.9432 50.7171 36.7478 51.0268 37.4704C51.3364 38.193 51.8761 38.793 52.5619 39.1774L76.3586 52.4671C76.8234 52.724 77.3396 52.874 77.8697 52.906C78.3997 52.938 78.9303 52.8512 79.4225 52.6521C79.9148 52.453 80.3564 52.1464 80.7152 51.7549C81.0739 51.3634 81.3407 50.8967 81.4961 50.3889Z" fill="#139E20"/>
<path d="M67.9566 14.0699L67.1092 16.7457L66.1013 16.2373C65.9515 16.1491 65.7829 16.0974 65.6093 16.0866C65.4357 16.0757 65.2621 16.106 65.1024 16.1748C64.9302 16.2626 64.7804 16.3886 64.6645 16.5432C64.5485 16.6978 64.4695 16.8769 64.4334 17.0668L63.2918 20.7058C63.1807 21.0788 63.0154 21.4334 62.8012 21.7583C62.6572 21.9947 62.4622 22.1958 62.2304 22.347C62.0619 22.4478 61.8823 22.5286 61.6952 22.5878C61.57 22.6348 61.4359 22.6531 61.3027 22.6413H61.1511L61.276 22.7751C61.3688 22.8965 61.4523 23.0247 61.5257 23.1587C61.6432 23.363 61.7332 23.5819 61.7933 23.8098C61.8534 24.103 61.8774 24.4026 61.8647 24.7017C61.8553 25.1138 61.7862 25.5224 61.6595 25.9147L60.5089 29.5716C60.3668 29.9543 60.3668 30.3753 60.5089 30.7579C60.6466 31.1203 60.9135 31.4189 61.2582 31.5963L62.275 32.1226L61.383 34.7984L59.8667 34.0045C58.8852 33.5398 58.1123 32.7256 57.6994 31.7212C57.319 30.654 57.319 29.4882 57.6994 28.421L58.9659 24.5947C59.1163 24.192 59.1163 23.7486 58.9659 23.346C58.8059 22.9555 58.5073 22.6379 58.1275 22.454L58.9034 19.9655C59.0641 20.0667 59.246 20.129 59.4349 20.1476C59.6238 20.1661 59.8144 20.1405 59.9916 20.0726C60.1659 19.9853 60.3182 19.8597 60.4371 19.7053C60.5561 19.5508 60.6385 19.3715 60.6784 19.1806L61.8825 15.3453C61.9909 14.8434 62.2064 14.3708 62.5143 13.9598C62.8222 13.5488 63.2152 13.2091 63.6664 12.9639C64.1231 12.7929 64.6134 12.7312 65.0983 12.7839C65.5831 12.8365 66.0488 13.0021 66.4581 13.2671L67.9566 14.0699Z" fill="white"/>
<path d="M81.2644 20.9996C82.2459 21.4644 83.0188 22.2785 83.4318 23.283C83.813 24.3469 83.813 25.5102 83.4318 26.5742L82.1563 30.4006C82.0059 30.8032 82.0059 31.2466 82.1563 31.6493C82.3178 32.0388 82.6159 32.356 82.9947 32.5412L82.2188 35.0297C82.0592 34.9304 81.8793 34.8684 81.6924 34.8483C81.5055 34.8282 81.3165 34.8506 81.1395 34.9137C80.9647 35.0016 80.8116 35.1271 80.6913 35.2814C80.571 35.4357 80.4864 35.6147 80.4438 35.8057L79.2486 39.632C79.1414 40.1356 78.9264 40.61 78.6185 41.0226C78.3105 41.4352 77.917 41.7763 77.4648 42.0224C77.0081 42.1934 76.5177 42.2551 76.0329 42.2024C75.5481 42.1498 75.0823 41.9842 74.673 41.7192L73.1567 40.9253L74.0487 38.2496L75.0565 38.7758C75.2057 38.8649 75.3734 38.9185 75.5467 38.9324C75.7199 38.9463 75.894 38.9202 76.0555 38.8561C76.2203 38.7732 76.3648 38.6552 76.4788 38.5103C76.5929 38.3654 76.6737 38.1972 76.7155 38.0177L77.8661 34.3607C77.9771 33.9849 78.1424 33.6274 78.3567 33.2993C78.4998 33.0647 78.6951 32.8663 78.9275 32.7196C79.0971 32.6295 79.2729 32.552 79.4538 32.4877C79.5833 32.4335 79.725 32.415 79.864 32.4342H79.9978L79.873 32.3093C79.7829 32.1861 79.6995 32.058 79.6232 31.9258C79.5012 31.7205 79.411 31.498 79.3557 31.2657C79.2961 30.9724 79.2722 30.6729 79.2843 30.3738C79.2942 29.9617 79.3633 29.5532 79.4894 29.1608L80.6311 25.5217C80.7707 25.1325 80.7707 24.7068 80.6311 24.3176C80.505 23.9352 80.2368 23.6159 79.8819 23.4257L78.874 22.8994L79.7213 20.2236L81.2644 20.9996Z" fill="white"/>
<path d="M77.0631 24.5763L72.2199 28.3403L73.7986 35.7255L70.8463 34.1824L69.8117 29.589L66.5918 31.9615L63.6484 30.4274L68.7681 26.5386L67.3054 19.4834L70.3647 21.08L71.1585 25.2988L74.0127 22.9798L77.0631 24.5763Z" fill="white"/>
</svg>
