<svg width="219" height="183" viewBox="0 0 219 183" fill="none" xmlns="http://www.w3.org/2000/svg">
<path d="M211.953 151.345C211.953 151.345 213.968 167.984 204.807 171.209C195.645 174.434 190.726 166.046 190.611 151.345" fill="#06577A"/>
<path d="M201.376 157.216C207.321 157.216 212.141 154.368 212.141 150.855C212.141 147.342 207.321 144.494 201.376 144.494C195.431 144.494 190.611 147.342 190.611 150.855C190.611 154.368 195.431 157.216 201.376 157.216Z" fill="#F2696A"/>
<path d="M198.679 137.974C198.679 137.974 202.681 132.126 200.932 128.083C200.932 128.083 199.495 125.487 197.452 125.07C197.452 125.07 197.654 130.611 195.619 129.905C193.585 129.198 195.619 124.099 195.619 124.099C195.619 124.099 193.475 121.163 191.13 121.256C188.784 121.35 191.13 126.44 189.499 125.598C187.868 124.755 189.398 120.422 187.565 119.903C185.888 119.504 184.186 119.22 182.471 119.052C182.471 119.052 180.739 124.108 182.471 124.832C184.203 125.555 186.75 125.802 185.531 126.917C184.312 128.032 180.84 126.747 180.84 126.747C180.84 126.747 180.621 129.59 181.798 130.824C182.975 132.058 189.911 129.334 188.683 131.777C187.456 134.22 182.874 132.995 182.874 132.995C182.874 132.995 185.22 136.4 187.969 137.932C190.718 139.464 198.679 137.974 198.679 137.974Z" fill="#8CCC00"/>
<path d="M197.957 152.323C197.957 152.323 200.903 149.372 200.32 146.829C200.025 145.929 199.416 145.17 198.608 144.696C198.608 144.696 198.128 147.935 197.024 147.308C195.919 146.681 197.649 143.938 197.649 143.938C197.649 143.938 196.724 141.996 195.363 141.787C194.001 141.578 194.806 144.8 193.95 144.13C193.094 143.459 194.447 141.108 193.445 140.646C192.516 140.233 191.56 139.884 190.585 139.602C190.585 139.602 189.044 142.344 189.968 142.963C190.893 143.581 192.34 143.999 191.51 144.513C190.679 145.026 188.813 143.894 188.813 143.894C188.813 143.894 188.384 145.523 188.932 146.367C189.48 147.212 193.779 146.367 192.811 147.682C191.844 148.997 189.318 147.752 189.318 147.752C189.902 149.04 190.722 150.204 191.732 151.183C193.171 152.35 197.957 152.323 197.957 152.323Z" fill="#8CCC00"/>
<path d="M208.256 146.447C208.256 146.447 215.464 146.724 217.959 142.979C217.959 142.979 219.383 140.308 218.615 138.305C218.615 138.305 213.988 141.513 213.436 139.354C212.883 137.195 218.399 136.181 218.399 136.181C218.399 136.181 219.728 132.712 218.399 130.727C217.07 128.741 213.962 133.562 213.789 131.68C213.617 129.799 218.166 128.758 217.588 126.877C216.995 125.201 216.292 123.567 215.481 121.986C215.481 121.986 210.198 123.244 210.535 125.151C210.872 127.059 212.072 129.409 210.44 128.949C208.809 128.489 207.997 124.778 207.997 124.778C207.997 124.778 205.408 126.148 205.045 127.848C204.683 129.547 210.794 134.091 208.032 134.36C205.27 134.628 203.785 129.972 203.785 129.972C203.785 129.972 202.179 133.865 202.369 137.108C202.559 140.351 208.256 146.447 208.256 146.447Z" fill="#8CCC00"/>
<path d="M183.397 120.935L185.755 122.911C185.676 122.088 185.578 121.273 185.446 120.458C185.375 120.025 186.047 119.843 186.117 120.276C186.294 121.369 186.426 122.464 186.515 123.562C188.582 125.339 190.631 127.202 192.548 129.179C192.711 127.792 192.752 126.394 192.672 125.001C192.672 124.558 193.343 124.558 193.37 125.001C193.46 126.613 193.392 128.229 193.166 129.829C194.385 131.12 195.529 132.478 196.594 133.894C197.791 132.269 198.605 130.404 198.979 128.433C199.059 128 199.73 128.182 199.65 128.615C199.251 130.713 198.369 132.693 197.071 134.406C197.05 134.429 197.026 134.449 197 134.466C200.23 138.695 202.095 143.776 202.353 149.055C202.353 149.497 201.673 149.497 201.656 149.055C201.406 143.964 199.62 139.061 196.523 134.969C193.71 135.716 190.793 136.008 187.884 135.836C187.442 135.836 187.434 135.125 187.884 135.151C190.642 135.327 193.412 135.075 196.09 134.406C194.612 132.448 192.988 130.599 191.232 128.875H191.17C189.545 129.014 187.919 129.161 186.285 129.213C185.262 129.357 184.217 129.238 183.255 128.867C182.858 128.667 183.211 128.078 183.609 128.277C184.73 128.832 186.303 128.537 187.513 128.468C188.547 128.407 189.58 128.32 190.614 128.234C188.131 125.815 185.464 123.57 182.893 121.438C182.557 121.134 183.052 120.675 183.397 120.935Z" fill="#06577A"/>
<path d="M204.323 134.066C204.299 133.978 204.31 133.884 204.356 133.805C204.402 133.725 204.477 133.667 204.567 133.643C204.656 133.618 204.751 133.63 204.832 133.675C204.912 133.72 204.971 133.795 204.996 133.883C205.751 136.423 207.323 138.653 209.474 140.237C210.265 138.072 210.988 135.881 211.643 133.665C209.957 132.009 208.571 130.082 207.545 127.965C207.35 127.564 207.952 127.215 208.147 127.616C209.097 129.547 210.355 131.315 211.873 132.853C212.599 130.322 213.245 127.756 213.785 125.173C213.873 124.736 214.546 124.919 214.457 125.356C213.714 128.893 212.796 132.385 211.705 135.829C213.023 135.575 214.304 135.161 215.52 134.598C215.927 134.406 216.281 135 215.874 135.192C214.469 135.85 212.98 136.317 211.448 136.58C210.713 138.849 209.881 141.083 209.005 143.3C211.094 143.235 213.153 142.788 215.077 141.982C215.484 141.808 215.838 142.401 215.431 142.576C213.312 143.473 211.037 143.956 208.731 143.998C207.61 146.756 206.377 149.473 205.031 152.15C204.828 152.543 204.226 152.202 204.429 151.801C206.229 148.246 207.828 144.595 209.218 140.865C206.871 139.193 205.15 136.802 204.323 134.066Z" fill="#06577A"/>
<path d="M192.172 142.643L194.049 145.811C194.28 145.5 194.48 145.168 194.646 144.819C194.837 144.418 195.425 144.766 195.235 145.167C195.02 145.613 194.756 146.034 194.447 146.42L196.481 149.858C196.708 149.638 196.855 149.346 196.896 149.031C196.948 148.596 197.631 148.596 197.58 149.031C197.518 149.581 197.248 150.085 196.827 150.441L199.371 154.741C199.416 154.819 199.43 154.913 199.407 155.001C199.384 155.089 199.327 155.164 199.249 155.211C199.171 155.257 199.078 155.27 198.991 155.247C198.903 155.224 198.828 155.167 198.782 155.089L195.425 149.423C194.861 149.431 194.3 149.346 193.764 149.17C193.348 149.031 193.53 148.37 193.946 148.509C194.288 148.617 194.643 148.685 195.001 148.709L191.601 142.965C191.581 142.892 191.586 142.814 191.615 142.744C191.644 142.675 191.696 142.616 191.761 142.579C191.827 142.542 191.903 142.529 191.977 142.54C192.052 142.551 192.12 142.588 192.172 142.643Z" fill="#06577A"/>
<path d="M40.1229 81.9668V124.983C40.1229 124.983 0 127.281 0 124.983V81.9668" fill="#00BCD4"/>
<path d="M20.0615 132.854C31.1411 132.854 40.1229 128.692 40.1229 123.558C40.1229 118.423 31.1411 114.261 20.0615 114.261C8.98182 114.261 0 118.423 0 123.558C0 128.692 8.98182 132.854 20.0615 132.854Z" fill="#00BCD4"/>
<path d="M20.0615 91.7537C31.1411 91.7537 40.1229 87.5914 40.1229 82.4569C40.1229 77.3225 31.1411 73.1602 20.0615 73.1602C8.98182 73.1602 0 77.3225 0 82.4569C0 87.5914 8.98182 91.7537 20.0615 91.7537Z" fill="#3129A3"/>
<path d="M32.6843 89.0087L32.5561 89.085C31.8269 89.3559 31.0897 89.6015 30.3364 89.7963L35.5129 43.9731C35.5129 43.9731 36.5947 43.3465 38.1653 44.4897L32.8526 88.9241L32.6843 89.0087Z" fill="#F78B72"/>
<path d="M26.4225 90.7756L24.4653 47.082C24.4653 47.082 25.6592 46.2647 27.7535 47.1508L29.3584 90.4143C28.3884 90.5837 27.4082 90.7043 26.4225 90.7756Z" fill="#F78B72"/>
<path d="M19.5724 91.6441L14.055 45.7588L2.93604 51.8248L7.43575 90.3703C11.3735 91.546 15.4854 91.9776 19.5724 91.6441Z" fill="#FCB749"/>
<path d="M116.482 139.941L90.9467 149.612C90.9467 149.612 89.8774 150.312 90.5618 151.987C90.9553 152.946 93.0683 154.327 93.0683 154.327L115.114 167.28C116.319 167.822 117.6 168.171 118.912 168.316C120.674 168.419 123.625 166.977 123.625 166.977L144.156 154.975L116.482 139.941Z" fill="#34323D"/>
<path d="M115.846 138.962L91.6557 149.027C91.6557 149.027 89.9593 149.968 90.4088 151.246C90.8924 152.195 91.6462 152.975 92.5717 153.481L114.489 166.3C115.684 166.842 116.954 167.192 118.255 167.336C120.002 167.44 122.928 165.998 122.928 165.998L142.199 154.845L115.846 138.962Z" fill="#00BCD4"/>
<path opacity="0.45" d="M115.846 138.962L91.6557 149.027C91.6557 149.027 89.9593 149.968 90.4088 151.246C90.8924 152.195 91.6462 152.975 92.5717 153.481L114.489 166.3C115.684 166.842 116.954 167.192 118.255 167.336C120.002 167.44 122.928 165.998 122.928 165.998L142.199 154.845L115.846 138.962Z" fill="#06577A"/>
<path d="M173.256 172.047C173.719 172.245 174.234 172.288 174.723 172.169C175.213 172.051 175.651 171.777 175.974 171.389C175.974 171.389 176.451 171.295 176.451 169.202V72.0565C176.425 71.2161 176.223 70.3907 175.857 69.634C175.491 68.8774 174.971 68.2065 174.329 67.6653C171.954 65.9979 169.478 64.48 166.916 63.1202L59.2636 0.813996L58.0536 0.198879C57.646 -0.00410865 57.1793 -0.0536671 56.7383 0.0592186C56.2973 0.172104 55.9114 0.439934 55.6507 0.813996C55.3353 1.35226 55.154 1.95893 55.1225 2.58246C55.0798 3.59911 55.1225 13.4154 55.1225 13.4154V100.813C55.1223 101.652 55.2964 102.482 55.6339 103.25C55.9713 104.018 56.4646 104.707 57.0822 105.273L173.256 172.047Z" fill="#00BCD4"/>
<path d="M174.494 157.556V73.7266C174.494 70.9408 174.11 69.3856 171.939 68.2234L58.4748 2.25401C58.2514 2.08737 57.9862 1.98645 57.7089 1.96255C57.4316 1.93865 57.1532 1.99271 56.9048 2.11869C56.6564 2.24466 56.4478 2.43757 56.3025 2.67579C56.1572 2.91401 56.0809 3.18813 56.082 3.46743L56.363 89.6721L174.494 157.556Z" fill="white"/>
<path d="M166.665 74.7362V103.732L146.114 91.5672L146.257 62.6309L166.665 74.7362Z" fill="#FB9C4D"/>
<path d="M140.243 60.0574V89.0537L119.692 76.8799L119.834 47.9521L140.243 60.0574Z" fill="#06577A"/>
<path d="M113.82 44.3983V73.3945L93.269 61.2207L93.4032 32.293L113.82 44.3983Z" fill="#F78B72"/>
<path d="M86.4195 28.742V57.7382L64.8901 45.573L65.0307 16.6367L86.4195 28.742Z" fill="#22B573"/>
<path d="M168.021 110.167L120.612 83.3339C120.317 83.1767 119.973 83.1396 119.652 83.2302C119.33 83.3208 119.056 83.5322 118.888 83.8199C118.72 84.1076 118.67 84.4491 118.749 84.7726C118.828 85.0961 119.031 85.3763 119.313 85.5543L166.722 112.388C167.016 112.545 167.361 112.582 167.682 112.491C168.004 112.401 168.277 112.189 168.446 111.902C168.614 111.614 168.664 111.272 168.585 110.949C168.505 110.625 168.303 110.345 168.021 110.167Z" fill="#FBB03B"/>
<path d="M167.043 117.996L119.634 91.163C119.339 91.0058 118.995 90.9687 118.674 91.0593C118.352 91.1499 118.078 91.3613 117.91 91.649C117.742 91.9367 117.692 92.2782 117.771 92.6017C117.85 92.9252 118.053 93.2054 118.335 93.3834L165.744 120.217C166.038 120.374 166.383 120.411 166.704 120.32C167.026 120.23 167.299 120.018 167.468 119.731C167.636 119.443 167.686 119.102 167.607 118.778C167.527 118.455 167.325 118.174 167.043 117.996Z" fill="#FBB03B"/>
<path d="M166.064 125.824L118.655 98.9912C118.361 98.834 118.017 98.7968 117.695 98.8874C117.373 98.9781 117.1 99.1895 116.931 99.4771C116.763 99.7648 116.713 100.106 116.793 100.43C116.872 100.753 117.074 101.034 117.356 101.212L164.765 128.045C165.06 128.202 165.404 128.239 165.726 128.149C166.047 128.058 166.321 127.847 166.489 127.559C166.658 127.271 166.707 126.93 166.628 126.606C166.549 126.283 166.347 126.002 166.064 125.824Z" fill="#FBB03B"/>
<path d="M102.948 95.6211C107.351 94.4481 109.62 88.6202 108.017 82.6042C106.414 76.5881 101.546 72.662 97.1435 73.8351C92.7411 75.0081 90.4718 80.836 92.0748 86.852C93.6778 92.8681 98.5461 96.7941 102.948 95.6211Z" fill="#06577A"/>
<path d="M74.469 82.0557C78.8713 80.8827 81.1406 75.0548 79.5376 69.0387C77.9346 63.0227 73.0663 59.0966 68.664 60.2696C64.2617 61.4426 61.9924 67.2705 63.5954 73.2866C65.1984 79.3027 70.0666 83.2287 74.469 82.0557Z" fill="#FB9C4D"/>
<path d="M59.9434 164.776C59.9434 164.776 65.2449 162.552 66.5242 162.461C67.8036 162.37 69.9329 162.783 68.0752 164.991C68.0752 164.991 62.5021 168.431 61.7661 168.538C61.03 168.646 59.2424 168.116 59.1986 168.298C59.1548 168.48 58.9883 169.811 58.9883 169.811C58.9883 169.811 54.3265 171.465 54.125 168.546C54.125 168.166 54.7997 162.7 54.7997 162.7" fill="#E55600"/>
<path d="M54.1443 151.424C55.031 145.56 56.6777 139.876 57.3364 133.943C57.7586 130.214 58.0626 126.459 58.5186 122.729C58.9746 119 60.3426 115.39 61.2209 111.695C61.2437 111.609 61.2378 111.518 61.2042 111.436C61.1706 111.354 61.1111 111.285 61.0351 111.241C61.0351 111.112 61.1111 110.984 61.1533 110.855C61.6093 110.418 62.0738 109.998 62.5213 109.604L68.8041 113.89C68.8041 113.89 68.8041 117.791 68.5677 123.458C67.8414 126.759 67.2841 129.699 66.4565 132.829C66.544 132.929 66.6072 133.049 66.6409 133.178C66.6747 133.308 66.678 133.443 66.6507 133.574C64.6073 143.425 63.1187 153.387 62.192 163.409C62.1803 163.575 62.1214 163.734 62.0225 163.866C61.9235 163.999 61.7888 164.099 61.6347 164.155L61.4573 165.699C55.9937 167.842 54.7945 164.112 54.7945 164.112C54.7945 164.112 54.5496 160.932 54.2372 156.525C54.1274 154.81 54.1021 153.122 54.1443 151.424Z" fill="#34323D"/>
<path d="M93.1371 90.1518L93.2867 90.2012C93.2161 90.1157 93.1681 90.0157 93.1468 89.9095C93.1255 89.8033 93.1314 89.6939 93.164 89.5902C93.1967 89.4865 93.2551 89.3916 93.3346 89.3131C93.414 89.2347 93.5123 89.175 93.6211 89.139C93.938 89.0402 94.2636 88.9578 94.5892 88.859C94.6147 88.8232 94.6442 88.7901 94.6772 88.7602C94.7825 88.6721 94.8976 88.5948 95.0204 88.5297C95.0779 88.4479 95.1563 88.381 95.2486 88.3349C95.3408 88.2889 95.4439 88.2652 95.5485 88.2662H95.7949C96.0677 88.2085 96.3493 88.1591 96.675 88.1015L97.6694 87.8956C97.6994 87.8107 97.7473 87.7323 97.8103 87.6651C99.1812 86.1239 100.431 84.492 101.551 82.7822C101.955 82.2058 103.099 82.5516 102.818 83.2762C102.558 84.0936 102.219 84.8873 101.806 85.6477C103.275 84.2479 104.076 83.935 105.414 82.4199C105.986 81.7776 106.954 82.6998 106.391 83.3339C106.048 83.7209 104.692 84.7007 104.349 85.0795C105.009 84.5114 106.681 83.3421 107.35 82.7822C108.019 82.2222 108.996 83.1445 108.327 83.6962C107.259 84.5855 106.206 85.4885 105.168 86.4052C106.109 85.8618 107.033 85.2936 107.931 84.6843C108.653 84.1902 109.339 85.3183 108.626 85.8041C107.597 86.504 106.532 87.1545 105.44 87.7639C106.129 87.6305 106.805 87.4489 107.465 87.2204C108.292 86.9157 108.653 88.1673 107.834 88.472C107.157 88.719 106.452 88.9249 105.757 89.1308L104.71 89.4437C104.299 89.5469 103.907 89.7079 103.548 89.9212C102.187 90.7063 100.702 91.287 99.148 91.6422L98.8575 91.8069C98.7663 91.8552 98.6632 91.8807 98.5583 91.8807C98.4534 91.8807 98.3504 91.8552 98.2591 91.8069C96.4231 92.1483 94.5219 92.0057 92.7675 91.3952C91.949 91.1152 92.257 89.8636 93.1371 90.1518Z" fill="#FCBF81"/>
<path d="M73.3416 79.2827C73.5924 79.0112 73.8637 78.7584 74.1532 78.5263C74.1477 78.5455 74.1477 78.5659 74.1532 78.5851C74.1475 78.6114 74.1505 78.6389 74.162 78.6634C74.1734 78.6879 74.1925 78.7082 74.2166 78.7214C74.2408 78.7345 74.2686 78.7398 74.296 78.7365C74.3234 78.7331 74.3491 78.7213 74.3691 78.7028L74.9044 78.3078C74.873 78.3713 74.8526 78.4395 74.844 78.5095C74.8257 78.6458 74.8609 78.7838 74.9425 78.8959C75.0241 79.0081 75.1462 79.0862 75.2843 79.1146C75.3637 79.1375 75.4473 79.1427 75.529 79.1298C75.6108 79.117 75.6885 79.0865 75.7564 79.0405C75.8244 78.9945 75.8809 78.9342 75.9217 78.8641C75.9626 78.7941 75.9867 78.7159 75.9923 78.6356L76.2168 78.5095C76.2079 78.5652 76.2079 78.6219 76.2168 78.6776C76.2156 78.7579 76.2351 78.8372 76.2736 78.9082C76.3121 78.9793 76.3683 79.0397 76.4371 79.0841C76.5059 79.1284 76.585 79.1553 76.6672 79.1621C76.7494 79.1689 76.8321 79.1554 76.9076 79.123L77.1407 79.0222C77.18 79.061 77.2271 79.0915 77.2791 79.1118C77.3311 79.132 77.3869 79.1416 77.4429 79.1398C77.9503 79.1472 78.4578 79.1247 78.9625 79.0726C78.9364 79.0494 78.9165 79.0204 78.9047 78.988C78.8928 78.9556 78.8892 78.9209 78.8944 78.8869C78.8995 78.8529 78.9131 78.8206 78.934 78.7929C78.9549 78.7652 78.9825 78.7429 79.0143 78.728C79.6706 78.5034 80.343 78.3264 81.0261 78.1985H81.1038L81.1556 78.1565C81.4395 77.7846 81.5717 77.3234 81.5269 76.8622C81.7209 76.748 81.8861 76.5928 82.0102 76.408C82.1343 76.2232 82.214 76.0136 82.2435 75.7948C82.2 75.7751 82.1638 75.7428 82.1399 75.7023C82.0823 75.6058 82.0415 75.5007 82.019 75.3913C81.9641 75.2345 81.9378 75.0695 81.9413 74.9039C81.9429 74.8642 81.9571 74.826 81.9818 74.7944C82.0065 74.7628 82.0406 74.7394 82.0795 74.7274C81.9672 74.3828 81.8204 74.0382 81.6823 73.7272C82.531 73.0318 83.1498 72.1079 83.4609 71.0713C83.4921 70.9746 83.4903 70.8706 83.4558 70.775C83.4214 70.6793 83.3561 70.597 83.2698 70.5404C83.1834 70.4837 83.0806 70.4557 82.9766 70.4605C82.8726 70.4653 82.7729 70.5027 82.6925 70.567C82.367 70.8283 82.0584 71.109 81.7686 71.4075C81.7011 71.4227 81.6386 71.4546 81.5873 71.5C80.0437 72.9858 78.418 74.3886 76.7176 75.7023C76.4327 75.9208 73.074 78.1733 73.2639 78.333C73.1948 78.3666 69.8189 81.8966 73.3416 79.2827ZM75.1462 78.4422C75.1517 78.4597 75.1611 78.4758 75.1737 78.4893C75.1862 78.5029 75.2016 78.5137 75.2189 78.5208C75.2361 78.528 75.2548 78.5315 75.2735 78.531C75.2923 78.5305 75.3107 78.526 75.3275 78.5179C75.3686 78.5765 75.4223 78.6257 75.485 78.6619C75.5476 78.6982 75.6176 78.7208 75.6901 78.728C75.6569 78.8027 75.5946 78.8615 75.5169 78.8914C75.4392 78.9213 75.3524 78.92 75.2757 78.8877C75.199 78.8554 75.1386 78.7947 75.1078 78.7191C75.0771 78.6434 75.0784 78.5589 75.1116 78.4843L75.1462 78.4422Z" fill="#FCBF81"/>
<path d="M74.2454 78.4795C74.8525 78.2829 75.4167 77.9732 75.9081 77.5667C76.0046 77.4803 76.1175 77.4141 76.24 77.3718C76.3625 77.3296 76.4922 77.3122 76.6216 77.3207C76.7509 77.3292 76.8773 77.3634 76.9932 77.4213C77.1091 77.4793 77.2122 77.5597 77.2965 77.658C77.4149 77.4301 77.5177 77.1945 77.6041 76.9527C77.7053 76.7149 77.8932 76.5242 78.1297 76.4192C78.3663 76.3141 78.6339 76.3026 78.8787 76.3868C79.1235 76.471 79.3271 76.6448 79.4485 76.873C79.5699 77.1013 79.6001 77.367 79.5329 77.6165C79.2318 78.6043 78.6304 79.4742 77.812 80.1058C76.9684 80.6353 76.0363 81.0091 75.0602 81.2093C74.8905 81.2381 74.7164 81.2247 74.5531 81.1703C74.3899 81.116 74.2426 81.0223 74.1243 80.8976C74.0059 80.773 73.9202 80.6211 73.8746 80.4555C73.829 80.2899 73.825 80.1156 73.863 79.9481L73.8048 79.8485C73.6846 79.6081 73.6633 79.3303 73.7457 79.0744C73.828 78.8186 74.0074 78.605 74.2454 78.4795Z" fill="#FCBF81"/>
<path d="M76.8012 80.233C77.89 80.0149 78.8451 79.4729 79.4859 78.7091C79.4892 78.7233 79.4959 78.7368 79.5055 78.7487C79.5152 78.7607 79.5277 78.7709 79.5423 78.7787C79.5568 78.7866 79.5732 78.7919 79.5902 78.7943C79.6073 78.7968 79.6249 78.7963 79.6417 78.7929L80.6863 78.572C80.9011 78.538 81.1083 78.4763 81.3002 78.3891C81.7492 78.1529 81.6209 77.6958 81.6209 77.3148C81.6293 77.2925 81.6293 77.2686 81.6209 77.2463L81.8042 77.1167C82.1209 76.9267 82.3606 76.6609 82.4914 76.3548C82.5647 76.0348 82.3081 75.7301 82.2531 75.4177C82.3422 75.2731 82.3734 75.1086 82.3421 74.9482C82.3107 74.7878 82.2186 74.64 82.0791 74.5263C81.7034 74.2215 81.3277 74.4348 80.9703 74.6405C80.2007 75.0774 79.4493 75.5371 78.7163 76.0196C78.5697 76.111 78.7163 76.2863 78.8995 76.1948C79.2966 75.9358 79.6998 75.6818 80.109 75.4329C80.4857 75.1278 80.915 74.871 81.3827 74.671C82.5189 74.4958 81.8683 75.5244 81.6026 75.7605C81.3369 75.9967 81.2635 76.0196 81.0895 76.1415L79.9258 76.9796C79.9111 76.9898 79.8994 77.0027 79.8914 77.0172C79.8835 77.0317 79.8796 77.0475 79.88 77.0634C79.8147 77.7676 79.4781 78.4355 78.9202 78.968C78.3623 79.5005 77.6128 79.8693 76.7829 80.0196C76.5538 80.073 76.6088 80.3015 76.8012 80.233ZM80.2556 77.1853C80.2341 77.1729 80.2085 77.1662 80.1823 77.1662C80.1561 77.1662 80.1305 77.1729 80.109 77.1853C80.109 77.1853 80.109 77.132 80.109 77.1091C80.8193 76.691 81.4655 76.2023 82.0332 75.6539C82.0332 75.7453 82.1065 75.8291 82.1432 75.9282C82.1954 76.0627 82.1979 76.2072 82.1506 76.3429C82.1032 76.4787 82.0081 76.5996 81.8775 76.6901C81.5384 77.0025 80.6955 77.6958 80.2282 77.2463L80.2556 77.1853ZM79.5959 78.5034C79.8399 78.1556 80.0046 77.7733 80.0815 77.3758C80.4572 77.6958 80.9429 77.5663 81.3552 77.3758C81.3737 77.538 81.3737 77.7012 81.3552 77.8634C81.3552 78.1072 81.1261 78.2063 80.8604 78.2672C80.4664 78.3968 79.9991 78.4729 79.5501 78.5644L79.5959 78.5034Z" fill="#34323D"/>
<path d="M61.9531 86.1709C62.3705 85.5336 76.2053 77.3507 77.0488 76.3311C77.946 77.4487 78.4774 78.8048 78.5736 80.2222C78.6698 81.6396 78.3263 83.0524 77.5879 84.276C77.5879 84.276 69.8314 93.1557 65.7966 93.946" fill="#5F66FC"/>
<path d="M71.5036 173.214L74.5039 174.41C74.5939 174.712 74.7524 174.984 74.964 175.198C75.1757 175.412 75.4334 175.562 75.7123 175.634C75.8177 175.775 75.9661 175.867 76.129 175.893C77.3438 175.99 78.5622 175.771 79.6877 175.254C81.1212 174.753 86.7218 172.37 85.1716 176.839C84.1465 177.636 83.0047 178.332 81.963 179.036C81.3712 179.435 80.7879 179.834 80.1795 180.205C79.8583 180.447 79.5035 180.628 79.1294 180.742C78.2959 180.882 76.3707 180.205 76.3207 180.436C76.2707 180.668 76.0874 182.384 76.0874 182.384C76.0874 182.384 70.9869 184.553 70.7618 180.752C70.7368 180.251 71.5036 173.214 71.5036 173.214Z" fill="#E55600"/>
<path d="M67.1029 142.256C66.4282 131.844 66.0593 121.363 63.7563 111.132C63.6573 108.471 61.8581 110.168 61.9571 109.117C62.9376 100.548 75.9731 110.745 75.9731 110.745C76.5039 111.158 76.5669 113.785 76.6748 114.379C77.2746 117.669 77.7784 120.97 78.1862 124.283C80.3453 141.007 79.5446 157.654 78.663 174.43C75.8922 177.142 74.0839 177.952 69.6218 176.204C68.7222 165.224 67.8856 154.243 67.1479 143.246L67.1029 142.256Z" fill="#34323D"/>
<path d="M60.4607 102.989C59.9855 97.8234 59.8746 92.6303 60.129 87.449C60.2225 86.0936 60.5883 82.7612 61.9239 81.9756C64.8588 80.249 68.9422 81.7943 71.4177 83.6418C74.7184 86.1109 76.6239 109.075 76.6324 114.721C72.0897 116.543 66.1519 117.233 61.5071 115.282C61.0987 115.11 61.0052 109.472 60.9456 108.773C60.8265 106.839 60.6564 104.905 60.4607 102.989Z" fill="#8B93FC"/>
<path d="M69.724 95.3669C69.8644 96.9511 70.4962 98.4547 71.5338 99.6741C72.5715 100.894 73.9649 101.77 75.5256 102.185C75.5256 102.496 75.6283 104.432 75.654 104.71C71.9231 103.868 69.1763 99.2304 68.8084 95.3333C68.7314 94.7777 69.6299 94.7861 69.724 95.3669Z" fill="#34323D"/>
<path d="M69.9393 72.1492C70.2228 72.2856 71.6066 78.6395 69.9893 82.0253C68.372 85.4112 63.1033 80.584 62.1195 77.5819C61.1358 74.5798 64.6122 69.5821 69.9393 72.1492Z" fill="#FCBF81"/>
<path d="M69.4286 72.6551C69.3253 73.2099 69.0714 73.721 68.6978 74.1261C68.3242 74.5313 67.847 74.813 67.3245 74.937C65.5737 75.2494 64.1435 75.4056 64.086 76.2211C64.0284 77.0367 67.0614 76.6984 66.7409 78.5291C66.5216 79.7598 66.1455 80.9535 65.623 82.0778C65.286 82.9455 60.8721 79.2145 60.0913 74.2082C59.3104 69.2018 63.5846 68.7767 63.7901 68.7767C64.5571 67.9895 65.5807 67.5424 66.6504 67.5273C68.7218 67.4665 69.1163 68.3949 69.1163 68.3949C69.6197 68.1996 70.1697 68.1829 70.6829 68.3473C71.1961 68.5117 71.6446 68.8483 71.9603 69.306C73.5137 71.2061 72.5438 73.9132 70.2753 74.642L69.4286 72.6551Z" fill="#E55600"/>
<path d="M70.7845 86.4113C70.7845 86.4113 82.4191 90.2804 86.1864 89.5602C89.7972 88.6445 93.3422 87.4946 96.7982 86.1182C99.824 87.7931 100.745 91.5198 99.7132 94.7189C95.2895 96.3269 82.1463 100.858 77.484 99.6014C71.8414 98.0856 65.5511 95.8328 65.5511 95.8328C65.5511 95.8328 59.4483 91.8799 70.7845 86.4113Z" fill="#8B93FC"/>
<path d="M165.686 134.352V141.414C165.685 141.668 165.616 141.917 165.486 142.137C165.356 142.358 165.169 142.541 164.943 142.671C164.717 142.8 164.46 142.871 164.198 142.876C163.935 142.881 163.676 142.82 163.445 142.699L156.686 139.146C156.448 139.02 156.249 138.834 156.111 138.608C155.973 138.382 155.9 138.124 155.9 137.861V130.635C155.901 130.379 155.972 130.128 156.105 129.906C156.238 129.685 156.428 129.501 156.657 129.373C156.887 129.245 157.147 129.177 157.412 129.176C157.677 129.175 157.937 129.241 158.168 129.367L164.927 133.118C165.152 133.244 165.34 133.423 165.473 133.639C165.606 133.855 165.679 134.101 165.686 134.352Z" fill="#EF7F6C"/>
<path d="M151.985 126.546V133.591C151.985 133.844 151.923 134.092 151.805 134.312C151.688 134.532 151.52 134.715 151.316 134.844C151.113 134.973 150.882 135.044 150.646 135.049C150.409 135.054 150.176 134.993 149.968 134.872L143.885 131.294C143.671 131.168 143.492 130.982 143.368 130.757C143.243 130.531 143.178 130.274 143.178 130.012V122.804C143.179 122.549 143.242 122.298 143.362 122.077C143.482 121.857 143.653 121.673 143.86 121.545C144.066 121.417 144.3 121.35 144.539 121.349C144.777 121.348 145.012 121.413 145.219 121.54L151.302 125.281C151.51 125.41 151.682 125.594 151.802 125.816C151.922 126.038 151.985 126.29 151.985 126.546Z" fill="#06577A"/>
<path d="M138.285 118.716V125.761C138.284 126.014 138.215 126.262 138.085 126.482C137.955 126.702 137.767 126.885 137.542 127.014C137.316 127.143 137.059 127.214 136.796 127.219C136.534 127.224 136.274 127.163 136.043 127.042L129.284 123.464C129.046 123.338 128.848 123.152 128.709 122.927C128.571 122.701 128.498 122.444 128.499 122.182V114.974C128.5 114.719 128.57 114.468 128.703 114.247C128.836 114.027 129.027 113.843 129.256 113.715C129.485 113.587 129.746 113.52 130.011 113.519C130.275 113.518 130.536 113.583 130.766 113.71L137.526 117.451C137.756 117.58 137.948 117.764 138.081 117.986C138.214 118.208 138.284 118.459 138.285 118.716Z" fill="#22B573"/>
</svg>
